HIERARCHY
ROOT Hips
{
    OFFSET 0.0 0.0 0.0
    CHANNELS 6 Xposition Yposition Zposition Zrotation Xrotation Yrotation
    JOINT LeftUpLeg
    {
        OFFSET 13.761875166370038 0.0 0.0
        CHANNELS 3 Zrotation Xrotation Yrotation
        JOINT LeftLeg
        {
            OFFSET 0.0 0.0 -61.494803592506
            CHANNELS 3 Zrotation Xrotation Yrotation
            JOINT LeftFoot
            {
                OFFSET 0.0 0.0 -48.96654467422661
                CHANNELS 3 Zrotation Xrotation Yrotation
                JOINT LeftToeBase
                {
                    OFFSET 0.0 -13.040006831504622 0.0
                    CHANNELS 3 Zrotation Xrotation Yrotation
                    End Site
                    {
                        OFFSET 0 0 0
                    }
                }
            }
        }
    }
    JOINT RightUpLeg
    {
        OFFSET -13.761875166370038 0.0 0.0
        CHANNELS 3 Zrotation Xrotation Yrotation
        JOINT RightLeg
        {
            OFFSET 0.0 0.0 -61.494803592506
            CHANNELS 3 Zrotation Xrotation Yrotation
            JOINT RightFoot
            {
                OFFSET 0.0 0.0 -48.96654467422661
                CHANNELS 3 Zrotation Xrotation Yrotation
                JOINT RightToeBase
                {
                    OFFSET 0.0 -13.040006831504622 0.0
                    CHANNELS 3 Zrotation Xrotation Yrotation
                    End Site
                    {
                        OFFSET 0 0 0
                    }
                }
            }
        }
    }
    JOINT Spine
    {
        OFFSET 0.0 0.0 11.77651583979584
        CHANNELS 3 Zrotation Xrotation Yrotation
        JOINT Spine1
        {
            OFFSET 0.0 0.0 11.537908495491179
            CHANNELS 3 Zrotation Xrotation Yrotation
            JOINT Spine2
            {
                OFFSET 0.0 0.0 11.537908495491179
                CHANNELS 3 Zrotation Xrotation Yrotation
                JOINT Spine3
                {
                    OFFSET 0.0 0.0 11.537908495491173
                    CHANNELS 3 Zrotation Xrotation Yrotation
                    JOINT Spine4
                    {
                        OFFSET 0.0 0.0 11.537908495491182
                        CHANNELS 3 Zrotation Xrotation Yrotation
                        JOINT RightShoulder
                        {
                            OFFSET -23.495374519696504 0.0 0.0
                            CHANNELS 3 Zrotation Xrotation Yrotation
                            JOINT RightArm
                            {
                                OFFSET -35.115647499103375 0.0 0.0
                                CHANNELS 3 Zrotation Xrotation Yrotation
                                JOINT RightForeArm
                                {
                                    OFFSET -35.03256638388187 0.0 0.0
                                    CHANNELS 3 Zrotation Xrotation Yrotation
                                    JOINT RightHand
                                    {
                                        OFFSET -11.591818811032338 0.0 0.0
                                        CHANNELS 3 Zrotation Xrotation Yrotation
                                        End Site
                                        {
                                            OFFSET 0 0 0
                                        }
                                    }
                                }
                            }
                        }
                        JOINT LeftShoulder
                        {
                            OFFSET 23.495374519696504 0.0 0.0
                            CHANNELS 3 Zrotation Xrotation Yrotation
                            JOINT LeftArm
                            {
                                OFFSET 35.115647499103375 0.0 0.0
                                CHANNELS 3 Zrotation Xrotation Yrotation
                                JOINT LeftForeArm
                                {
                                    OFFSET 35.03256638388187 0.0 0.0
                                    CHANNELS 3 Zrotation Xrotation Yrotation
                                    JOINT LeftHand
                                    {
                                        OFFSET 11.591818811032338 0.0 0.0
                                        CHANNELS 3 Zrotation Xrotation Yrotation
                                        End Site
                                        {
                                            OFFSET 0 0 0
                                        }
                                    }
                                }
                            }
                        }
                        JOINT Neck
                        {
                            OFFSET 0.0 0.0 11.537908496801439
                            CHANNELS 3 Zrotation Xrotation Yrotation
                            JOINT Head
                            {
                                OFFSET 0.0 0.0 25.242824475898804
                                CHANNELS 3 Zrotation Xrotation Yrotation
                                End Site
                                {
                                    OFFSET 0 0 0
                                }
                            }
                        }
                    }
                }
            }
        }
    }
}
MOTION
Frames: 7
Frame Time: 0.03333333333333333
26.384637594223022 -8.561663889884949 325.0104389190674 69.54934004283653 -84.85145802480024 72.43911978913506 -18.21015645178024 20.736577055227134 2.2104097922461405 18.027967508818843 -19.73400347133808 -9.068823265661724 -73.58874363718571 -9.54166404439055e-15 52.83346408718847 0.0 3.180554681463516e-15 0.0 -27.268279340636127 -28.027976355861576 -3.914003009594717 97.38909035100289 46.101986758950474 -93.7189487528978 113.36347821491192 7.951386703658792e-15 -23.864352864771668 0.0 0.0 0.0 -0.024212776879415754 -1.476227954621204 0.07310707978281553 -3.975693351829396e-16 -6.896728590703373e-34 1.987846675914698e-16 -3.975693351829396e-16 -6.896728590703373e-34 1.987846675914698e-16 -3.975693351829396e-16 -6.896728590703373e-34 1.987846675914698e-16 -3.975693351829396e-16 -6.896728590703373e-34 1.987846675914698e-16 109.38356313349217 -15.352244892189406 174.06790151533303 58.843831616464584 6.249624046280933e-15 1.1081382972743928e-14 7.689627605935728e-15 61.050407223710685 -1.930322911504217e-14 1.5902773407317584e-15 0.0 0.0 -164.03289406004419 -7.049254240317786 174.54950454127123 -130.0169138308766 1.796842656138282e-14 -6.621030121718131e-15 -180.0 -86.73117012712041 -180.0 -1.789062008323228e-15 7.951386703658791e-16 1.3914926731402884e-15 -1.1824106502463934 -2.207158599661121e-14 8.159217746680598e-16 0.0 0.0 0.0
25.391704380512238 -7.885789132118225 329.97718734741215 54.90100795968073 -82.83474113578491 58.01761295014798 -17.480374772554427 19.16176195863467 0.527399292115827 14.979160171204255 -15.914910167409122 -9.772558171361062 -63.249299137833276 -1.2722218725854067e-14 47.90861015801456 0.0 0.0 0.0 -29.11771641257023 -29.893086768869146 -4.243571476922068 97.6586154932592 45.09278839162375 -95.11042167125339 113.4096101821215 -4.770832022195275e-15 -22.094616054540012 0.0 0.0 -2.9817700138720465e-16 -0.0484781856950808 -3.0961821367566267 0.2042228869543047 -3.975693351829396e-16 0.0 0.0 -3.975693351829396e-16 0.0 0.0 -3.975693351829396e-16 0.0 0.0 -3.975693351829396e-16 0.0 0.0 112.37158840990408 -13.990127352779222 174.3603871064714 68.97403954767903 -7.864759387661134e-15 5.4026764210168554e-15 -7.137065461157525e-15 68.36760749876939 4.847395965930922e-15 5.963540027744094e-16 0.0 0.0 -156.99141253504783 -9.669523643038174 170.92854391287824 -123.76045644861027 -1.2719589557827979e-14 3.1910529407461823e-15 -4.9986431380158465e-15 -42.06713419742263 -1.922160085125087e-15 2.3854160110976376e-15 0.0 0.0 -2.464915160422615 -7.450839626512827e-15 9.084192432507836e-16 4.969616689786746e-17 -2.155227684594804e-35 -4.969616689786746e-17
24.40976969003677 -7.025727581977845 335.52905330657967 41.284065990313174 -81.53687495599459 44.38705912659682 -17.358838915822464 17.36467420604312 -0.024324167229388953 10.307101341923566 -10.895147253834525 -11.170452008699511 -49.25469673657594 -9.54166404439055e-15 42.87853992976275 0.0 0.0 0.0 -29.68404832505104 -31.01745966980352 -4.362522554240597 97.17792391091774 44.16065635438404 -95.02913458996676 112.5265467163355 0.0 -20.225243039386932 0.0 0.0 0.0 -0.05792604203670116 -4.966779871840656 0.35879313926681344 0.0 0.0 1.987846675914698e-16 0.0 0.0 1.987846675914698e-16 0.0 0.0 1.987846675914698e-16 0.0 0.0 1.987846675914698e-16 118.94703858389843 -13.255798397648576 173.77674344931444 80.88261544721585 9.958131485742959e-15 1.6586891099253532e-14 -8.1303469421451e-14 86.91518255265834 8.580308330728164e-14 0.0 0.0 0.0 -147.00534362940255 -13.514221153740035 165.90600640638445 -115.89890752004061 1.9034479132124354e-14 -1.7546191597797332e-14 -5.2315173735068046e-15 -1.1233752347145078 -6.4127028096185e-15 4.969616689786745e-17 0.0 0.0 -2.7278363446533715 -2.2893017482148636e-14 6.479779190581088e-16 1.987846675914698e-16 -1.077613842297402e-34 -6.212020862233431e-17
23.56296476125717 -6.361565691232682 341.03354244232185 22.43773621656899 -79.83452479955476 25.274131904653046 -16.82371276166836 14.179207538536884 -0.1871841209447759 4.5278970109559795 -4.828544225162844 -12.117384925749466 -34.646887568786 1.5902773407317584e-15 39.429035685625834 0.0 0.0 0.0 -32.18104080541292 -33.847129504584075 -6.245566662383638 100.56721953473826 43.08648053116285 -96.43003379301915 110.88482223367795 0.0 -17.14855767024073 0.0 0.0 7.951386703658792e-16 -0.04736752965578309 -7.408906258053482 0.4391015566880364 3.975693351829396e-16 0.0 0.0 3.975693351829396e-16 0.0 0.0 3.975693351829396e-16 0.0 0.0 3.975693351829396e-16 0.0 0.0 125.97072414215266 -13.897509304931184 173.43920364789184 91.89698518785058 -4.720740212074042e-15 -1.3417644110860038e-14 180.0 71.60835253772555 180.0 -1.5902773407317584e-15 0.0 0.0 -136.12771539834245 -19.09982996305659 160.06437091838384 -111.37010005348034 2.1015864349685626e-14 -1.4344087383639992e-14 -3.973050196197491e-15 -0.09537844687668108 3.1772488777824796e-15 0.0 0.0 3.1805546814635168e-15 -2.022993611271735 -1.3079530003152637e-14 6.729411762171264e-17 4.47265502080807e-16 -3.1060104311167144e-18 1.4908850069360232e-16
22.779453063011168 -5.606904718279838 346.7496391296387 12.825728975258768 -77.26971802743087 15.301802131171891 -15.00632427254123 10.002572653952067 -0.9136811630318931 -1.936420942973636 2.023095211557096 -11.313876470438409 -26.556114740460398 -2.067360542951286e-14 36.98529525503663 0.0 0.0 3.1805546814635168e-15 -33.63444526356541 -35.847308503380134 -7.188797032425296 101.46830052292017 42.06644581868816 -96.02167570705677 110.28367799756018 1.5902773407317584e-15 -14.115532595293665 0.0 0.0 0.0 0.061419545720254674 -10.088496639939907 0.49117726160477737 -4.969616689786745e-17 6.465683053784412e-35 -1.4908850069360235e-16 -4.969616689786745e-17 6.465683053784412e-35 -1.4908850069360235e-16 -4.969616689786745e-17 6.465683053784412e-35 -1.4908850069360235e-16 -4.969616689786745e-17 6.465683053784412e-35 -1.4908850069360235e-16 132.9174447834367 -15.04365899669934 173.2699954710013 101.48538271325651 -1.9701931469967904e-14 -1.6101344465186e-14 180.0 59.314401621470495 -180.0 0.0 0.0 0.0 -127.91398591641482 -26.06905532174473 155.09701415212464 -107.34144915512329 -9.835272510810302e-15 -2.6373618402371406e-15 4.4117170520605285e-16 -42.66080360059737 -3.242174755546714e-15 -1.1927080055488188e-15 0.0 0.0 -1.6091321088972332 2.049823827574462e-14 -1.302572264818574e-15 0.0 0.0 -9.93923337957349e-17
22.052298045158388 -4.99018665701151 352.2399501800537 8.553134788552825 -74.99442581533644 10.682257329301926 -13.998820776574265 6.16139617391347 -1.590516729768244 -7.725113825421146 7.817375450672744 -9.178295285569146 -26.92499840226107 0.0 35.06378448982727 0.0 0.0 0.0 -32.57635930799721 -37.20117485773678 -6.061520280921272 99.838057226278 40.639322381764984 -95.02475144038888 112.3020917105954 0.0 -11.226438956203651 0.0 0.0 0.0 0.2998309012080773 -12.672165802913971 0.47124312384587436 0.0 0.0 4.969616689786745e-17 0.0 0.0 4.969616689786745e-17 0.0 0.0 4.969616689786745e-17 0.0 0.0 4.969616689786745e-17 139.70475163290223 -17.159238766794267 172.78892178442544 109.47801860484984 -1.8361400404189363e-15 2.597020953660144e-15 -180.0 45.27063460667533 180.0 -3.1805546814635164e-15 -8.827812596100317e-32 3.1805546814635164e-15 -123.36104382078983 -32.68337235776266 151.27696717224322 -106.85317088585344 8.898850660726691e-15 1.318287363331714e-15 7.85573820656963e-14 -83.0493642746357 7.912066588786772e-14 -1.341796506242421e-15 0.0 0.0 -1.3759937639504223 7.186371439063632e-16 5.553269225134937e-16 -4.969616689786746e-17 1.5530052155583582e-18 -9.939233379573492e-17
21.35620315074921 -4.557529279589653 357.50145549774174 5.499609789149584 -73.08419683330081 7.493366263199716 -13.400128677907372 3.279968322562511 -2.3983298478248605 -9.710618273759557 9.513929338596736 -7.456806422640953 -41.29441486563119 1.5902773407317584e-15 33.1263781517477 6.3611093629270335e-15 0.0 0.0 -29.39957432419773 -37.17399807752935 -3.5567995008765507 95.31549853248593 39.464852453058555 -91.56387066142842 105.02484046504263 0.0 -8.27994715268533 0.0 0.0 0.0 0.5930344080099844 -15.024513658017362 0.30432227541861545 0.0 0.0 -1.4908850069360235e-16 0.0 0.0 -1.4908850069360235e-16 0.0 0.0 -1.4908850069360235e-16 0.0 0.0 -1.4908850069360235e-16 145.17581074295867 -18.492529908252088 173.26459116190145 115.05694253961508 -1.2440783486649583e-14 -4.147008997887318e-15 -180.0 26.607822892846436 180.0 0.0 0.0 0.0 -125.62382351760795 -29.223715961102045 153.43765110719212 -107.66124294917313 1.0766414890735983e-14 3.948591579749916e-15 2.06068705910706e-16 -56.76978777951122 3.7265461023442e-15 1.1927080055488188e-15 0.0 0.0 -0.5127699776691924 -2.0632475739637145e-14 8.270622533544251e-16 1.7393658414253607e-16 -3.771648448040907e-35 -2.4848083448933725e-17
